<svg width="33" height="32" viewBox="0 0 33 32" fill="none"
  xmlns="http://www.w3.org/2000/svg">
  <path fill-rule="evenodd" clip-rule="evenodd" d="M13.0396 6.07692C8.01917 9.30107 5.23012 13.0537 4.67241 17.3349C3.80418 23.9996 9.7643 27.2618 12.7842 24.3307C15.8042 21.3997 13.9939 17.6793 11.8072 16.6624C9.62044 15.6454 8.28317 15.9996 8.51644 14.6406C8.7497 13.2817 11.8608 9.51381 14.594 7.75907C14.7753 7.60487 14.8443 7.30567 14.6697 7.07867C14.5548 6.92941 14.3296 6.63664 13.9939 6.20035C13.7004 5.81884 13.4192 5.83312 13.0396 6.07692Z" fill="#BFCDD5"/>
  <path fill-rule="evenodd" clip-rule="evenodd" d="M26.2563 6.07692C21.236 9.30107 18.4469 13.0537 17.8892 17.3349C17.021 23.9996 22.9811 27.2618 26.0011 24.3307C29.021 21.3997 27.2107 17.6793 25.024 16.6624C22.8373 15.6454 21.4999 15.9996 21.7333 14.6406C21.9665 13.2817 25.0776 9.51381 27.8108 7.75907C27.9921 7.60487 28.0611 7.30567 27.8865 7.07867C27.7717 6.92941 27.5464 6.63664 27.2107 6.20035C26.9172 5.81884 26.636 5.83312 26.2563 6.07692Z" fill="#BFCDD5"/>
</svg>
