<svg width="230" height="39" viewBox="0 0 230 39" fill="none" xmlns="http://www.w3.org/2000/svg">
<g clip-path="url(#clip0_426_804)">
<path d="M27.1569 13.5759H0.93486C0.418551 13.5759 0 13.9945 0 14.5108V18.3177C0 18.834 0.418551 19.2525 0.93486 19.2525H27.1569C27.6732 19.2525 28.0918 18.834 28.0918 18.3177V14.5108C28.0918 13.9945 27.6732 13.5759 27.1569 13.5759Z" fill="#CC935B"/>
<path d="M3.34423 38.0231L0.671455 35.3166C0.497195 35.1409 0.399414 34.9035 0.399414 34.6561C0.399414 34.4086 0.497195 34.1712 0.671455 33.9956L9.47446 25.2937C9.56086 25.2072 9.66364 25.1388 9.77679 25.0925C9.88995 25.0461 10.0112 25.0229 10.1335 25.024L18.1028 25.0485C18.2253 25.0506 18.3462 25.0771 18.4583 25.1266C18.5704 25.1761 18.6715 25.2475 18.7556 25.3366L27.433 34.017C27.5215 34.1027 27.5919 34.2054 27.6399 34.3189C27.688 34.4323 27.7128 34.5543 27.7128 34.6775C27.7128 34.8008 27.688 34.9227 27.6399 35.0362C27.5919 35.1497 27.5215 35.2523 27.433 35.3381L24.7418 38.0292C24.6561 38.1178 24.5534 38.1881 24.4399 38.2362C24.3265 38.2843 24.2045 38.3091 24.0813 38.3091C23.958 38.3091 23.8361 38.2843 23.7226 38.2362C23.6091 38.1881 23.5065 38.1178 23.4207 38.0292L16.3955 30.9887C16.3097 30.902 16.2075 30.8332 16.0949 30.7864C15.9823 30.7395 15.8615 30.7156 15.7396 30.7159H12.4629C12.3402 30.7144 12.2183 30.7374 12.1046 30.7838C11.9909 30.8301 11.8876 30.8987 11.8009 30.9856L4.6561 38.0323C4.56991 38.1188 4.46734 38.1873 4.35439 38.2337C4.24144 38.2802 4.12037 38.3037 3.99824 38.3028C3.87612 38.302 3.75538 38.2768 3.6431 38.2288C3.53081 38.1807 3.42921 38.1108 3.34423 38.0231Z" fill="#CC935B"/>
<path d="M4.82743 1.622L11.7577 7.97905C12.1001 8.29449 12.5487 8.46956 13.0144 8.46946H14.9975C15.4632 8.4714 15.9127 8.29859 16.2572 7.98518L23.2733 1.62813C23.4123 1.50219 23.5102 1.33735 23.5543 1.15502C23.5984 0.972699 23.5866 0.781326 23.5205 0.605785C23.4544 0.430245 23.337 0.278654 23.1836 0.170717C23.0302 0.0627808 22.8478 0.00349129 22.6603 0.00055563H5.45885C5.26726 -0.00743873 5.07796 0.0446617 4.91745 0.149567C4.75694 0.254472 4.63323 0.406934 4.56365 0.585618C4.49407 0.764302 4.48209 0.96027 4.52939 1.1461C4.57669 1.33193 4.68089 1.49832 4.82743 1.622Z" fill="#CC935B"/>
<path d="M88.2235 14.5229H84.9316C82.2009 14.5254 79.5828 15.6112 77.652 17.5421C75.7211 19.4729 74.6352 22.0911 74.6328 24.8217V28.1137C74.6361 30.8441 75.7221 33.4617 77.6528 35.3924C79.5835 37.3231 82.2012 38.4092 84.9316 38.4124H88.2235C90.9539 38.4092 93.5716 37.3231 95.5023 35.3924C97.433 33.4617 98.5191 30.8441 98.5223 28.1137V24.8217C98.5199 22.0911 97.434 19.4729 95.5032 17.5421C93.5723 15.6112 90.9542 14.5254 88.2235 14.5229ZM93.1767 28.1137C93.1751 29.4268 92.6528 30.6858 91.7242 31.6143C90.7956 32.5429 89.5367 33.0653 88.2235 33.0669H84.9316C83.6184 33.0653 82.3595 32.5429 81.4309 31.6143C80.5024 30.6858 79.98 29.4268 79.9784 28.1137V24.8217C79.98 23.5086 80.5024 22.2496 81.4309 21.3211C82.3595 20.3925 83.6184 19.8701 84.9316 19.8685H88.2235C89.5367 19.8701 90.7956 20.3925 91.7242 21.3211C92.6528 22.2496 93.1751 23.5086 93.1767 24.8217V28.1137Z" fill="#00314F"/>
<path d="M116.416 14.5229H113.124C110.394 14.5262 107.776 15.6123 105.845 17.543C103.915 19.4737 102.828 22.0913 102.825 24.8217V28.1137C102.829 30.8438 103.916 33.461 105.846 35.3915C107.777 37.322 110.394 38.4084 113.124 38.4124H116.416C119.147 38.4092 121.765 37.3232 123.696 35.3926C125.627 33.462 126.714 30.8444 126.718 28.1137V24.8217C126.715 22.0908 125.628 19.4727 123.697 17.5419C121.765 15.6111 119.147 14.5254 116.416 14.5229ZM121.372 28.1137C121.37 29.4271 120.847 30.686 119.918 31.6145C118.989 32.543 117.729 33.0653 116.416 33.0669H113.124C111.811 33.0653 110.552 32.5429 109.623 31.6143C108.695 30.6858 108.172 29.4268 108.171 28.1137V24.8217C108.172 23.5086 108.695 22.2496 109.623 21.3211C110.552 20.3925 111.811 19.8701 113.124 19.8685H116.416C117.729 19.8701 118.989 20.3924 119.918 21.3209C120.847 22.2493 121.37 23.5083 121.372 24.8217V28.1137Z" fill="#00314F"/>
<path d="M222.23 10.3513H220.829V9.60034H224.507V10.3513H223.088V14.5444H222.245L222.23 10.3513Z" fill="#00314F"/>
<path d="M225.037 9.60034H225.88L227.508 12.5582L229.135 9.60034H229.978V14.5444H229.135V11.2371L227.796 13.5911H227.244L225.892 11.2371V14.5444H225.037V9.60034Z" fill="#00314F"/>
<path d="M218.337 14.5229H214.858C214.614 14.5229 214.38 14.6198 214.208 14.7922C214.035 14.9646 213.938 15.1985 213.938 15.4424V28.1013C213.938 29.4153 213.415 30.6751 212.486 31.604C211.556 32.5328 210.296 33.0545 208.982 33.0545H205.681C204.367 33.0545 203.107 32.5328 202.178 31.604C201.248 30.6751 200.726 29.4153 200.725 28.1013V15.4424C200.725 15.1985 200.628 14.9646 200.455 14.7922C200.283 14.6198 200.049 14.5229 199.805 14.5229H196.314C196.07 14.5229 195.836 14.6198 195.664 14.7922C195.491 14.9646 195.395 15.1985 195.395 15.4424V28.1013C195.395 30.833 196.481 33.4525 198.413 35.3838C200.345 37.3152 202.965 38.4001 205.696 38.4001H208.985C211.717 38.4001 214.336 37.3151 216.268 35.3837C218.199 33.4523 219.284 30.8327 219.284 28.1013V15.4424C219.284 15.3193 219.259 15.1974 219.211 15.084C219.164 14.9706 219.093 14.868 219.005 14.7822C218.917 14.6965 218.812 14.6293 218.697 14.5848C218.583 14.5402 218.46 14.5192 218.337 14.5229Z" fill="#00314F"/>
<path d="M144.612 14.5229H141.32C138.59 14.5254 135.971 15.6112 134.041 17.5421C132.11 19.4729 131.024 22.0911 131.021 24.8217V28.1137C131.025 30.8441 132.111 33.4617 134.042 35.3924C135.972 37.3231 138.59 38.4092 141.32 38.4124H144.612C147.343 38.4092 149.96 37.3231 151.891 35.3924C153.822 33.4617 154.908 30.8441 154.911 28.1137V24.8217C154.909 22.0911 153.823 19.4729 151.892 17.5421C149.961 15.6112 147.343 14.5254 144.612 14.5229ZM149.565 28.1137C149.564 29.4268 149.041 30.6858 148.113 31.6143C147.184 32.5429 145.925 33.0653 144.612 33.0669H141.32C140.007 33.0653 138.748 32.5429 137.82 31.6143C136.891 30.6858 136.369 29.4268 136.367 28.1137V24.8217C136.369 23.5086 136.891 22.2496 137.82 21.3211C138.748 20.3925 140.007 19.8701 141.32 19.8685H144.612C145.925 19.8701 147.184 20.3925 148.113 21.3211C149.041 22.2496 149.564 23.5086 149.565 24.8217V28.1137Z" fill="#00314F"/>
<path d="M135.432 0.00366211H131.956C131.44 0.00366211 131.021 0.422213 131.021 0.938522V37.4716C131.021 37.9879 131.44 38.4065 131.956 38.4065H135.432C135.948 38.4065 136.367 37.9879 136.367 37.4716V0.938522C136.367 0.422213 135.948 0.00366211 135.432 0.00366211Z" fill="#00314F"/>
<path d="M163.625 0.0249023H160.149C159.632 0.0249023 159.214 0.443453 159.214 0.959762V37.4714C159.214 37.9877 159.632 38.4063 160.149 38.4063H163.625C164.141 38.4063 164.559 37.9877 164.559 37.4714V0.959762C164.559 0.443453 164.141 0.0249023 163.625 0.0249023Z" fill="#00314F"/>
<path d="M44.1777 35.9236V15.4455C44.1777 15.2017 44.2746 14.9678 44.4471 14.7953C44.6195 14.6229 44.8534 14.526 45.0973 14.526H48.6007C48.7227 14.524 48.844 14.5463 48.9573 14.5916C49.0706 14.6369 49.1738 14.7043 49.2608 14.7899C49.3478 14.8754 49.417 14.9775 49.4641 15.0901C49.5113 15.2026 49.5356 15.3235 49.5356 15.4455V30.2408L56.1838 25.8118C56.4905 25.6085 56.8503 25.5001 57.2183 25.5001C57.5862 25.5001 57.946 25.6085 58.2527 25.8118L64.9439 30.2562V15.4455C64.9439 15.3235 64.9681 15.2026 65.0153 15.0901C65.0625 14.9775 65.1316 14.8754 65.2186 14.7899C65.3056 14.7043 65.4088 14.6369 65.5221 14.5916C65.6355 14.5463 65.7567 14.524 65.8787 14.526H69.3822C69.626 14.526 69.8599 14.6229 70.0324 14.7953C70.2048 14.9678 70.3017 15.2017 70.3017 15.4455V35.9236C70.3011 36.3455 70.1862 36.7594 69.9692 37.1212C69.7522 37.4831 69.4412 37.7794 69.0694 37.9787C68.6975 38.178 68.2785 38.2728 67.8571 38.2531C67.4356 38.2334 67.0273 38.1 66.6757 37.8668L57.7531 31.9267C57.5994 31.8253 57.4193 31.7712 57.2351 31.7712C57.051 31.7712 56.8709 31.8253 56.7171 31.9267L47.8068 37.8638C47.4553 38.0976 47.047 38.2317 46.6254 38.252C46.2037 38.2722 45.7844 38.1778 45.4122 37.9788C45.0399 37.7797 44.7285 37.4835 44.5111 37.1216C44.2938 36.7597 44.1786 36.3457 44.1777 35.9236Z" fill="#00314F"/>
<path d="M181.544 38.4124C179.252 38.4542 176.987 37.9086 174.966 36.8278C173.106 35.8276 171.555 34.3385 170.479 32.5213C169.393 30.6629 168.837 28.543 168.87 26.3911C168.839 24.2722 169.396 22.1863 170.479 20.365C171.547 18.5844 173.065 17.1161 174.88 16.1076C176.813 15.0332 178.995 14.4867 181.207 14.5229C183.634 14.5229 185.684 15.0665 187.355 16.1536C188.845 17.1414 190.072 18.4775 190.929 20.0463C191.049 20.2641 191.094 20.515 191.057 20.7608C191.021 21.0066 190.905 21.2336 190.727 21.4072L177.657 34.25L174.286 30.8416L186.586 18.7804L186.445 23.0715C186.063 22.1066 185.414 21.27 184.575 20.6593C183.784 20.0994 182.679 19.8195 181.259 19.8195C180.065 19.789 178.883 20.0745 177.835 20.647C176.886 21.1865 176.107 21.9821 175.588 22.9428C175.037 23.9795 174.76 25.1404 174.785 26.3144C174.755 27.7159 175.137 29.0952 175.886 30.2807C176.3 30.925 176.837 31.4812 177.467 31.9175C178.701 32.7428 180.161 33.1648 181.645 33.1251C182.745 33.1437 183.838 32.9426 184.86 32.5335C185.601 32.2253 186.282 31.7908 186.874 31.2493C187.011 31.1225 187.191 31.0535 187.377 31.057C187.564 31.0604 187.741 31.1359 187.873 31.2677L190.521 33.9159C190.655 34.0508 190.73 34.2332 190.73 34.4232C190.73 34.6132 190.655 34.7956 190.521 34.9305C189.491 35.9937 188.255 36.8363 186.889 37.4071C185.193 38.0976 183.375 38.4395 181.544 38.4124Z" fill="#00314F"/>
</g>
<defs>
<clipPath id="clip0_426_804">
<rect width="230" height="38.412" fill="white" transform="translate(0 0.000488281)"/>
</clipPath>
</defs>
</svg>
